<svg id="visual" viewBox="0 0 960 540" width="960" height="540" xmlns="http://www.w3.org/2000/svg" xmlns:xlink="http://www.w3.org/1999/xlink" version="1.1"><path d="M0 403L22.8 391C45.7 379 91.3 355 137 344.5C182.7 334 228.3 337 274 348.2C319.7 359.3 365.3 378.7 411.2 385C457 391.3 503 384.7 548.8 380.2C594.7 375.7 640.3 373.3 686 376.2C731.7 379 777.3 387 823 390.3C868.7 393.7 914.3 392.3 937.2 391.7L960 391L960 541L937.2 541C914.3 541 868.7 541 823 541C777.3 541 731.7 541 686 541C640.3 541 594.7 541 548.8 541C503 541 457 541 411.2 541C365.3 541 319.7 541 274 541C228.3 541 182.7 541 137 541C91.3 541 45.7 541 22.8 541L0 541Z" fill="#d7d2cc"></path><path d="M0 388L22.8 390.7C45.7 393.3 91.3 398.7 137 405.7C182.7 412.7 228.3 421.3 274 423C319.7 424.7 365.3 419.3 411.2 407.8C457 396.3 503 378.7 548.8 378C594.7 377.3 640.3 393.7 686 397.2C731.7 400.7 777.3 391.3 823 392.7C868.7 394 914.3 406 937.2 412L960 418L960 541L937.2 541C914.3 541 868.7 541 823 541C777.3 541 731.7 541 686 541C640.3 541 594.7 541 548.8 541C503 541 457 541 411.2 541C365.3 541 319.7 541 274 541C228.3 541 182.7 541 137 541C91.3 541 45.7 541 22.8 541L0 541Z" fill="#a9ada3"></path><path d="M0 423L22.8 428.3C45.7 433.7 91.3 444.3 137 440.8C182.7 437.3 228.3 419.7 274 419.5C319.7 419.3 365.3 436.7 411.2 442.2C457 447.7 503 441.3 548.8 437.7C594.7 434 640.3 433 686 428.5C731.7 424 777.3 416 823 417.5C868.7 419 914.3 430 937.2 435.5L960 441L960 541L937.2 541C914.3 541 868.7 541 823 541C777.3 541 731.7 541 686 541C640.3 541 594.7 541 548.8 541C503 541 457 541 411.2 541C365.3 541 319.7 541 274 541C228.3 541 182.7 541 137 541C91.3 541 45.7 541 22.8 541L0 541Z" fill="#798a83"></path><path d="M0 437L22.8 443C45.7 449 91.3 461 137 464.5C182.7 468 228.3 463 274 457.2C319.7 451.3 365.3 444.7 411.2 443.2C457 441.7 503 445.3 548.8 448.7C594.7 452 640.3 455 686 457.2C731.7 459.3 777.3 460.7 823 464.5C868.7 468.3 914.3 474.7 937.2 477.8L960 481L960 541L937.2 541C914.3 541 868.7 541 823 541C777.3 541 731.7 541 686 541C640.3 541 594.7 541 548.8 541C503 541 457 541 411.2 541C365.3 541 319.7 541 274 541C228.3 541 182.7 541 137 541C91.3 541 45.7 541 22.8 541L0 541Z" fill="#4e676a"></path><path d="M0 515L22.8 512.7C45.7 510.3 91.3 505.7 137 505C182.7 504.3 228.3 507.7 274 503.8C319.7 500 365.3 489 411.2 485.2C457 481.3 503 484.7 548.8 488.2C594.7 491.7 640.3 495.3 686 493.5C731.7 491.7 777.3 484.3 823 481C868.7 477.7 914.3 478.3 937.2 478.7L960 479L960 541L937.2 541C914.3 541 868.7 541 823 541C777.3 541 731.7 541 686 541C640.3 541 594.7 541 548.8 541C503 541 457 541 411.2 541C365.3 541 319.7 541 274 541C228.3 541 182.7 541 137 541C91.3 541 45.7 541 22.8 541L0 541Z" fill="#304352"></path></svg>